<svg width="820" height="810" viewBox="0 0 820 810" fill="none" xmlns="http://www.w3.org/2000/svg">
<g clip-path="url(#clip0_2_2)">
<rect x="11.5" y="11.5" width="67" height="67" rx="8.5" fill="#79E6F4" fill-opacity="0.63" stroke="black" stroke-width="3"/>
<rect x="92.5" y="11.5" width="67" height="67" rx="8.5" fill="#79E6F4" fill-opacity="0.63" stroke="black" stroke-width="3"/>
<rect x="173.5" y="11.5" width="67" height="67" rx="8.5" fill="#79E6F4" fill-opacity="0.63" stroke="black" stroke-width="3"/>
<rect x="254.5" y="11.5" width="67" height="67" rx="8.5" fill="#79E6F4" fill-opacity="0.63" stroke="black" stroke-width="3"/>
<rect x="335.5" y="11.5" width="67" height="67" rx="8.5" fill="#79E6F4" fill-opacity="0.63" stroke="black" stroke-width="3"/>
<rect x="416.5" y="11.5" width="67" height="67" rx="8.5" fill="#79E6F4" fill-opacity="0.63" stroke="black" stroke-width="3"/>
<rect x="497.5" y="11.5" width="67" height="67" rx="8.5" fill="#79E6F4" fill-opacity="0.63" stroke="black" stroke-width="3"/>
<rect x="578.5" y="11.5" width="67" height="67" rx="8.5" fill="#79E6F4" fill-opacity="0.63" stroke="black" stroke-width="3"/>
<rect x="659.5" y="11.5" width="67" height="67" rx="8.5" fill="#79E6F4" fill-opacity="0.63" stroke="black" stroke-width="3"/>
<rect x="740.5" y="11.5" width="67" height="67" rx="8.5" fill="#79E6F4" fill-opacity="0.63" stroke="black" stroke-width="3"/>
<rect x="497.5" y="91.5" width="67" height="67" rx="8.5" fill="#79E6F4" fill-opacity="0.63" stroke="black" stroke-width="3"/>
<rect x="578.5" y="91.5" width="67" height="67" rx="8.5" fill="#79E6F4" fill-opacity="0.63" stroke="black" stroke-width="3"/>
<rect x="659.5" y="91.5" width="67" height="67" rx="8.5" fill="#79E6F4" fill-opacity="0.63" stroke="black" stroke-width="3"/>
<rect x="740.5" y="91.5" width="67" height="67" rx="8.5" fill="#79E6F4" fill-opacity="0.63" stroke="black" stroke-width="3"/>
<rect x="11.5" y="91.5" width="67" height="67" rx="8.5" fill="#79E6F4" fill-opacity="0.63" stroke="black" stroke-width="3"/>
<rect x="92.5" y="91.5" width="67" height="67" rx="8.5" fill="#79E6F4" fill-opacity="0.63" stroke="black" stroke-width="3"/>
<rect x="173.5" y="91.5" width="67" height="67" rx="8.5" fill="#79E6F4" fill-opacity="0.63" stroke="black" stroke-width="3"/>
<rect x="254.5" y="91.5" width="67" height="67" rx="8.5" fill="#79E6F4" fill-opacity="0.63" stroke="black" stroke-width="3"/>
<rect x="335.5" y="91.5" width="67" height="67" rx="8.5" fill="#79E6F4" fill-opacity="0.63" stroke="black" stroke-width="3"/>
<rect x="416.5" y="91.5" width="67" height="67" rx="8.5" fill="#79E6F4" fill-opacity="0.63" stroke="black" stroke-width="3"/>
<rect x="11.5" y="171.5" width="67" height="67" rx="8.5" fill="#79E6F4" fill-opacity="0.63" stroke="black" stroke-width="3"/>
<rect x="92.5" y="171.5" width="67" height="67" rx="8.5" fill="#79E6F4" fill-opacity="0.63" stroke="black" stroke-width="3"/>
<rect x="173.5" y="171.5" width="67" height="67" rx="8.5" fill="#79E6F4" fill-opacity="0.63" stroke="black" stroke-width="3"/>
<rect x="254.5" y="171.5" width="67" height="67" rx="8.5" fill="#79E6F4" fill-opacity="0.63" stroke="black" stroke-width="3"/>
<rect x="335.5" y="171.5" width="67" height="67" rx="8.5" fill="#79E6F4" fill-opacity="0.63" stroke="black" stroke-width="3"/>
<rect x="416.5" y="171.5" width="67" height="67" rx="8.5" fill="#79E6F4" fill-opacity="0.63" stroke="black" stroke-width="3"/>
<rect x="497.5" y="171.5" width="67" height="67" rx="8.5" fill="#79E6F4" fill-opacity="0.63" stroke="black" stroke-width="3"/>
<rect x="578.5" y="171.5" width="67" height="67" rx="8.5" fill="#79E6F4" fill-opacity="0.63" stroke="black" stroke-width="3"/>
<rect x="659.5" y="171.5" width="67" height="67" rx="8.5" fill="#79E6F4" fill-opacity="0.63" stroke="black" stroke-width="3"/>
<rect x="740.5" y="171.5" width="67" height="67" rx="8.5" fill="#79E6F4" fill-opacity="0.63" stroke="black" stroke-width="3"/>
<rect x="497.5" y="251.5" width="67" height="67" rx="8.5" fill="#79E6F4" fill-opacity="0.63" stroke="black" stroke-width="3"/>
<rect x="578.5" y="251.5" width="67" height="67" rx="8.5" fill="#79E6F4" fill-opacity="0.63" stroke="black" stroke-width="3"/>
<rect x="659.5" y="251.5" width="67" height="67" rx="8.5" fill="#79E6F4" fill-opacity="0.63" stroke="black" stroke-width="3"/>
<rect x="740.5" y="251.5" width="67" height="67" rx="8.5" fill="#79E6F4" fill-opacity="0.63" stroke="black" stroke-width="3"/>
<rect x="11.5" y="251.5" width="67" height="67" rx="8.5" fill="#79E6F4" fill-opacity="0.63" stroke="black" stroke-width="3"/>
<rect x="92.5" y="251.5" width="67" height="67" rx="8.5" fill="#79E6F4" fill-opacity="0.63" stroke="black" stroke-width="3"/>
<rect x="173.5" y="251.5" width="67" height="67" rx="8.5" fill="#79E6F4" fill-opacity="0.63" stroke="black" stroke-width="3"/>
<rect x="254.5" y="251.5" width="67" height="67" rx="8.5" fill="#79E6F4" fill-opacity="0.63" stroke="black" stroke-width="3"/>
<rect x="335.5" y="251.5" width="67" height="67" rx="8.5" fill="#79E6F4" fill-opacity="0.63" stroke="black" stroke-width="3"/>
<rect x="416.5" y="251.5" width="67" height="67" rx="8.5" fill="#79E6F4" fill-opacity="0.63" stroke="black" stroke-width="3"/>
<rect x="11.5" y="331.5" width="67" height="67" rx="8.5" fill="#79E6F4" fill-opacity="0.63" stroke="black" stroke-width="3"/>
<rect x="92.5" y="331.5" width="67" height="67" rx="8.5" fill="#79E6F4" fill-opacity="0.63" stroke="black" stroke-width="3"/>
<rect x="173.5" y="331.5" width="67" height="67" rx="8.5" fill="#79E6F4" fill-opacity="0.63" stroke="black" stroke-width="3"/>
<rect x="254.5" y="331.5" width="67" height="67" rx="8.5" fill="#79E6F4" fill-opacity="0.63" stroke="black" stroke-width="3"/>
<rect x="335.5" y="331.5" width="67" height="67" rx="8.5" fill="#79E6F4" fill-opacity="0.63" stroke="black" stroke-width="3"/>
<rect x="416.5" y="331.5" width="67" height="67" rx="8.5" fill="#79E6F4" fill-opacity="0.63" stroke="black" stroke-width="3"/>
<rect x="497.5" y="331.5" width="67" height="67" rx="8.5" fill="#79E6F4" fill-opacity="0.63" stroke="black" stroke-width="3"/>
<rect x="578.5" y="331.5" width="67" height="67" rx="8.5" fill="#79E6F4" fill-opacity="0.63" stroke="black" stroke-width="3"/>
<rect x="659.5" y="331.5" width="67" height="67" rx="8.5" fill="#79E6F4" fill-opacity="0.63" stroke="black" stroke-width="3"/>
<rect x="740.5" y="331.5" width="67" height="67" rx="8.5" fill="#79E6F4" fill-opacity="0.63" stroke="black" stroke-width="3"/>
<rect x="497.5" y="411.5" width="67" height="67" rx="8.5" fill="#79E6F4" fill-opacity="0.63" stroke="black" stroke-width="3"/>
<rect x="578.5" y="411.5" width="67" height="67" rx="8.5" fill="#79E6F4" fill-opacity="0.63" stroke="black" stroke-width="3"/>
<rect x="659.5" y="411.5" width="67" height="67" rx="8.5" fill="#79E6F4" fill-opacity="0.63" stroke="black" stroke-width="3"/>
<rect x="740.5" y="411.5" width="67" height="67" rx="8.5" fill="#79E6F4" fill-opacity="0.63" stroke="black" stroke-width="3"/>
<rect x="11.5" y="411.5" width="67" height="67" rx="8.5" fill="#79E6F4" fill-opacity="0.63" stroke="black" stroke-width="3"/>
<rect x="92.5" y="411.5" width="67" height="67" rx="8.5" fill="#79E6F4" fill-opacity="0.63" stroke="black" stroke-width="3"/>
<rect x="173.5" y="411.5" width="67" height="67" rx="8.5" fill="#79E6F4" fill-opacity="0.63" stroke="black" stroke-width="3"/>
<rect x="254.5" y="411.5" width="67" height="67" rx="8.5" fill="#79E6F4" fill-opacity="0.63" stroke="black" stroke-width="3"/>
<rect x="335.5" y="411.5" width="67" height="67" rx="8.5" fill="#79E6F4" fill-opacity="0.63" stroke="black" stroke-width="3"/>
<rect x="416.5" y="411.5" width="67" height="67" rx="8.5" fill="#79E6F4" fill-opacity="0.63" stroke="black" stroke-width="3"/>
<rect x="11.5" y="491.5" width="67" height="67" rx="8.5" fill="#79E6F4" fill-opacity="0.63" stroke="black" stroke-width="3"/>
<rect x="92.5" y="491.5" width="67" height="67" rx="8.5" fill="#79E6F4" fill-opacity="0.63" stroke="black" stroke-width="3"/>
<rect x="173.5" y="491.5" width="67" height="67" rx="8.5" fill="#79E6F4" fill-opacity="0.63" stroke="black" stroke-width="3"/>
<rect x="254.5" y="491.5" width="67" height="67" rx="8.5" fill="#79E6F4" fill-opacity="0.63" stroke="black" stroke-width="3"/>
<rect x="335.5" y="491.5" width="67" height="67" rx="8.5" fill="#79E6F4" fill-opacity="0.63" stroke="black" stroke-width="3"/>
<rect x="416.5" y="491.5" width="67" height="67" rx="8.5" fill="#79E6F4" fill-opacity="0.63" stroke="black" stroke-width="3"/>
<rect x="497.5" y="491.5" width="67" height="67" rx="8.5" fill="#79E6F4" fill-opacity="0.63" stroke="black" stroke-width="3"/>
<rect x="578.5" y="491.5" width="67" height="67" rx="8.5" fill="#79E6F4" fill-opacity="0.63" stroke="black" stroke-width="3"/>
<rect x="659.5" y="491.5" width="67" height="67" rx="8.5" fill="#79E6F4" fill-opacity="0.63" stroke="black" stroke-width="3"/>
<rect x="740.5" y="491.5" width="67" height="67" rx="8.5" fill="#79E6F4" fill-opacity="0.63" stroke="black" stroke-width="3"/>
<rect x="497.5" y="571.5" width="67" height="67" rx="8.5" fill="#79E6F4" fill-opacity="0.63" stroke="black" stroke-width="3"/>
<rect x="578.5" y="571.5" width="67" height="67" rx="8.5" fill="#79E6F4" fill-opacity="0.63" stroke="black" stroke-width="3"/>
<rect x="659.5" y="571.5" width="67" height="67" rx="8.5" fill="#79E6F4" fill-opacity="0.63" stroke="black" stroke-width="3"/>
<rect x="740.5" y="571.5" width="67" height="67" rx="8.5" fill="#79E6F4" fill-opacity="0.63" stroke="black" stroke-width="3"/>
<rect x="11.5" y="571.5" width="67" height="67" rx="8.5" fill="#79E6F4" fill-opacity="0.63" stroke="black" stroke-width="3"/>
<rect x="92.5" y="571.5" width="67" height="67" rx="8.5" fill="#79E6F4" fill-opacity="0.63" stroke="black" stroke-width="3"/>
<rect x="173.5" y="571.5" width="67" height="67" rx="8.5" fill="#79E6F4" fill-opacity="0.63" stroke="black" stroke-width="3"/>
<rect x="254.5" y="571.5" width="67" height="67" rx="8.5" fill="#79E6F4" fill-opacity="0.63" stroke="black" stroke-width="3"/>
<rect x="335.5" y="571.5" width="67" height="67" rx="8.5" fill="#79E6F4" fill-opacity="0.63" stroke="black" stroke-width="3"/>
<rect x="416.5" y="571.5" width="67" height="67" rx="8.5" fill="#79E6F4" fill-opacity="0.63" stroke="black" stroke-width="3"/>
<rect x="11.5" y="651.5" width="67" height="67" rx="8.5" fill="#79E6F4" fill-opacity="0.63" stroke="black" stroke-width="3"/>
<rect x="92.5" y="651.5" width="67" height="67" rx="8.5" fill="#79E6F4" fill-opacity="0.63" stroke="black" stroke-width="3"/>
<rect x="173.5" y="651.5" width="67" height="67" rx="8.5" fill="#79E6F4" fill-opacity="0.63" stroke="black" stroke-width="3"/>
<rect x="254.5" y="651.5" width="67" height="67" rx="8.5" fill="#79E6F4" fill-opacity="0.63" stroke="black" stroke-width="3"/>
<rect x="335.5" y="651.5" width="67" height="67" rx="8.5" fill="#79E6F4" fill-opacity="0.63" stroke="black" stroke-width="3"/>
<rect x="416.5" y="651.5" width="67" height="67" rx="8.5" fill="#79E6F4" fill-opacity="0.63" stroke="black" stroke-width="3"/>
<rect x="497.5" y="651.5" width="67" height="67" rx="8.5" fill="#79E6F4" fill-opacity="0.63" stroke="black" stroke-width="3"/>
<rect x="578.5" y="651.5" width="67" height="67" rx="8.5" fill="#79E6F4" fill-opacity="0.63" stroke="black" stroke-width="3"/>
<rect x="659.5" y="651.5" width="67" height="67" rx="8.5" fill="#79E6F4" fill-opacity="0.63" stroke="black" stroke-width="3"/>
<rect x="740.5" y="651.5" width="67" height="67" rx="8.5" fill="#79E6F4" fill-opacity="0.63" stroke="black" stroke-width="3"/>
<rect x="497.5" y="731.5" width="67" height="67" rx="8.5" fill="#79E6F4" fill-opacity="0.63" stroke="black" stroke-width="3"/>
<rect x="578.5" y="731.5" width="67" height="67" rx="8.5" fill="#79E6F4" fill-opacity="0.63" stroke="black" stroke-width="3"/>
<rect x="659.5" y="731.5" width="67" height="67" rx="8.5" fill="#79E6F4" fill-opacity="0.63" stroke="black" stroke-width="3"/>
<rect x="740.5" y="731.5" width="67" height="67" rx="8.5" fill="#79E6F4" fill-opacity="0.63" stroke="black" stroke-width="3"/>
<rect x="11.5" y="731.5" width="67" height="67" rx="8.5" fill="#79E6F4" fill-opacity="0.63" stroke="black" stroke-width="3"/>
<rect x="92.5" y="731.5" width="67" height="67" rx="8.5" fill="#79E6F4" fill-opacity="0.63" stroke="black" stroke-width="3"/>
<rect x="173.5" y="731.5" width="67" height="67" rx="8.5" fill="#79E6F4" fill-opacity="0.63" stroke="black" stroke-width="3"/>
<rect x="254.5" y="731.5" width="67" height="67" rx="8.5" fill="#79E6F4" fill-opacity="0.63" stroke="black" stroke-width="3"/>
<rect x="335.5" y="731.5" width="67" height="67" rx="8.5" fill="#79E6F4" fill-opacity="0.63" stroke="black" stroke-width="3"/>
<rect x="416.5" y="731.5" width="67" height="67" rx="8.5" fill="#79E6F4" fill-opacity="0.63" stroke="black" stroke-width="3"/>
<path d="M142.147 218.722C142.189 219.174 142.086 219.627 141.852 220.023C141.618 220.419 141.264 220.74 140.834 220.944C138.953 221.84 135.03 222.948 127.026 223.146C126.459 223.16 125.913 223.166 125.387 223.166C117.834 223.166 114.37 221.796 112.944 220.941C112.573 220.719 112.275 220.405 112.082 220.034C111.889 219.662 111.81 219.247 111.852 218.836V207.341H142.157L142.147 218.722Z" fill="#A57939"/>
<path d="M128.052 209.717C121.046 209.704 114.101 208.493 107.553 206.146C107.455 206.106 107.368 206.047 107.296 205.973C107.224 205.898 107.17 205.81 107.138 205.715C107.105 205.619 107.095 205.518 107.107 205.418C107.12 205.319 107.155 205.223 107.21 205.137C114.015 194.542 126.225 188.112 126.742 187.843C126.851 187.786 126.975 187.756 127.1 187.756C127.226 187.755 127.349 187.785 127.46 187.842C128.014 188.128 141.11 194.97 146.979 205.136C147.027 205.221 147.057 205.314 147.066 205.41C147.075 205.506 147.063 205.603 147.031 205.694C147 205.786 146.948 205.871 146.879 205.943C146.811 206.015 146.726 206.072 146.632 206.111C140.316 208.611 134.01 209.387 128.052 209.717Z" fill="#6A462F"/>
<path d="M125.471 223.172C123.785 223.172 122.733 223.108 122.651 223.103C122.468 223.092 122.297 223.015 122.171 222.889C122.046 222.763 121.977 222.597 121.977 222.424V211.808C121.977 211.719 121.995 211.63 122.032 211.548C122.068 211.465 122.121 211.39 122.188 211.327C122.255 211.264 122.335 211.214 122.422 211.179C122.51 211.145 122.604 211.128 122.699 211.128H131.473C131.664 211.128 131.848 211.199 131.983 211.327C132.119 211.455 132.195 211.628 132.195 211.808V222.232C132.195 222.402 132.128 222.566 132.006 222.691C131.885 222.816 131.718 222.895 131.539 222.91C129.149 223.117 127.037 223.172 125.471 223.172Z" fill="#6A462F"/>
<path d="M127.718 188.789C127.782 188.676 127.815 188.55 127.816 188.423C127.812 188.382 127.804 188.342 127.791 188.302C127.781 188.256 127.766 188.21 127.746 188.167C127.74 188.155 127.74 188.141 127.733 188.129C127.714 188.103 127.692 188.079 127.668 188.057C127.652 188.029 127.633 188.002 127.612 187.977C127.601 187.967 127.587 187.964 127.576 187.954C127.538 187.925 127.497 187.899 127.453 187.877C127.334 187.817 127.2 187.785 127.064 187.784C127.02 187.788 126.977 187.796 126.936 187.808C126.887 187.817 126.84 187.831 126.794 187.849C126.781 187.855 126.765 187.855 126.752 187.862C126.236 188.13 114.032 194.558 107.23 205.148C107.176 205.231 107.142 205.324 107.13 205.42C107.118 205.516 107.128 205.614 107.159 205.707C107.191 205.799 107.243 205.884 107.312 205.956C107.381 206.028 107.465 206.086 107.56 206.124C108.975 206.705 110.437 207.177 111.932 207.536C111.979 207.545 112.027 207.549 112.075 207.549L112.081 207.55H112.082L112.086 207.549C112.159 207.548 112.23 207.536 112.298 207.515C112.32 207.508 112.341 207.5 112.362 207.49C112.409 207.472 112.454 207.448 112.496 207.42C112.516 207.408 112.535 207.394 112.554 207.379C112.594 207.345 112.63 207.307 112.662 207.265C112.674 207.249 112.689 207.236 112.699 207.219L112.707 207.209C116.69 200.459 121.713 194.302 127.612 188.939C127.623 188.929 127.626 188.916 127.636 188.905C127.667 188.869 127.695 188.83 127.718 188.789V188.789Z" fill="#FCEA2B"/>
<path d="M139.813 203.518C140.552 204.618 141.291 205.773 142.02 206.979" stroke="black" stroke-width="2" stroke-linecap="round" stroke-linejoin="round"/>
<path d="M141.434 209.06L141.425 218.756C141.462 219.076 141.394 219.399 141.231 219.682C141.067 219.965 140.815 220.193 140.509 220.337C138.929 221.089 135.183 222.264 127.007 222.465C118.516 222.674 114.803 221.25 113.332 220.367C113.07 220.21 112.86 219.986 112.726 219.721C112.592 219.457 112.54 219.162 112.575 218.871V209.06" stroke="black" stroke-width="2" stroke-linecap="round" stroke-linejoin="round"/>
<path d="M122.698 220.347V211.808H131.473V220.347" stroke="black" stroke-width="2" stroke-linecap="round" stroke-linejoin="round"/>
<path d="M146.324 205.472C140.493 195.37 127.102 188.458 127.102 188.458C127.102 188.458 114.628 194.944 107.847 205.5" stroke="black" stroke-width="2" stroke-linecap="round" stroke-linejoin="round"/>
<path d="M119.347 203.548C118.766 205.05 118.278 206.583 117.887 208.138" stroke="black" stroke-width="2" stroke-linecap="round" stroke-linejoin="round"/>
<path d="M124.144 208.911C124.144 208.911 124.348 206.609 124.844 203.449" stroke="black" stroke-width="2" stroke-linecap="round" stroke-linejoin="round"/>
<path d="M134.885 203.592C135.467 205.094 135.954 206.627 136.346 208.182" stroke="black" stroke-width="2" stroke-linecap="round" stroke-linejoin="round"/>
<path d="M130.028 208.936C130.028 208.936 129.823 206.634 129.327 203.474" stroke="black" stroke-width="2" stroke-linecap="round" stroke-linejoin="round"/>
<path d="M114.289 203.408C113.55 204.509 112.814 205.663 112.082 206.87" stroke="black" stroke-width="2" stroke-linecap="round" stroke-linejoin="round"/>
<path d="M139.813 203.518C140.552 204.618 141.291 205.773 142.02 206.979" stroke="black" stroke-width="2" stroke-linecap="round" stroke-linejoin="round"/>
<path d="M289.085 260.929L293.379 266.576L297.674 272.225H289.085H280.496L284.791 266.576L289.085 260.929Z" fill="#EA5A47"/>
<path d="M298.645 267.971L295.854 267.923L293.062 267.875L294.499 265.432L295.936 262.988L297.291 265.479L298.645 267.971Z" fill="#D22F27"/>
<path d="M292.474 268.243L295.651 270.557L295.729 272.198L297.769 272.1L297.573 267.996" fill="#D0CFCE"/>
<path d="M291.079 262.982H287.838L287.028 264.694V273.252H287.838H291.079H291.889V264.694L291.079 262.982Z" fill="#D0CFCE" stroke="#D0CFCE" stroke-width="2" stroke-miterlimit="10"/>
<path d="M292.859 263.886L289.388 263.827L285.917 263.768L287.703 260.773L289.489 257.778L291.174 260.832L292.859 263.886Z" fill="#D22F27"/>
<path d="M288.486 272.225H278.278V311.25H288.486V272.225Z" fill="#9B9B9A"/>
<path d="M298.694 272.225H288.486V311.25H298.694V272.225Z" fill="#D0CFCE"/>
<path d="M283.382 267.5H280.319L279.299 268.667V273.333H280.319H283.382V271L284.403 268.667L283.382 267.5Z" fill="#9B9B9A"/>
<path d="M285.554 266.964L282.162 266.906L278.771 266.849L280.516 263.922L282.262 260.997L283.908 263.981L285.554 266.964Z" fill="#D22F27"/>
<path d="M298.645 267.971L295.854 267.923L293.062 267.875L294.499 265.432L295.936 262.988L297.291 265.479L298.645 267.971Z" stroke="black" stroke-width="2" stroke-linecap="round" stroke-linejoin="round"/>
<path d="M292.569 269.144V264.78L291.549 262.982H287.465L286.444 264.78V269.144" stroke="black" stroke-width="2" stroke-linecap="round" stroke-linejoin="round"/>
<path d="M292.859 263.886L289.388 263.827L285.917 263.768L287.703 260.773L289.489 257.778L291.174 260.832L292.859 263.886Z" stroke="black" stroke-width="2" stroke-linecap="round" stroke-linejoin="round"/>
<path d="M288.486 272.225H278.278V311.25H288.486V272.225Z" stroke="black" stroke-width="2" stroke-linecap="round" stroke-linejoin="round"/>
<path d="M298.694 272.225H288.486V311.25H298.694V272.225Z" stroke="black" stroke-width="2" stroke-linecap="round" stroke-linejoin="round"/>
<path d="M291.549 276.333V278.387" stroke="black" stroke-width="2" stroke-linecap="round" stroke-linejoin="round"/>
<path d="M294.611 286.603V288.657" stroke="black" stroke-width="2" stroke-linecap="round" stroke-linejoin="round"/>
<path d="M291.549 298.926V300.98" stroke="black" stroke-width="2" stroke-linecap="round" stroke-linejoin="round"/>
<path d="M279.299 267.09V271.198" stroke="black" stroke-width="2" stroke-linecap="round" stroke-linejoin="round"/>
<path d="M285.554 266.964L282.162 266.906L278.771 266.849L280.516 263.922L282.262 260.997L283.908 263.981L285.554 266.964Z" stroke="black" stroke-width="2" stroke-linejoin="round"/>
<path d="M297.674 272.225V268.117" stroke="black" stroke-width="2" stroke-linecap="round" stroke-linejoin="round"/>
<path d="M282.361 286.603V288.657" stroke="black" stroke-width="2" stroke-linecap="round" stroke-linejoin="round"/>
<path d="M285.424 298.926V300.98" stroke="black" stroke-width="2" stroke-linecap="round" stroke-linejoin="round"/>
<path d="M289.507 267.09H289.518" stroke="black" stroke-width="2" stroke-linecap="round" stroke-linejoin="round"/>
<path d="M613.085 100.929L617.379 106.576L621.674 112.225H613.085H604.496L608.791 106.576L613.085 100.929Z" fill="#EA5A47"/>
<path d="M622.645 107.971L619.854 107.923L617.062 107.875L618.499 105.432L619.936 102.988L621.291 105.479L622.645 107.971Z" fill="#D22F27"/>
<path d="M616.474 108.243L619.651 110.557L619.729 112.198L621.769 112.1L621.572 107.996" fill="#D0CFCE"/>
<path d="M615.079 102.982H611.838L611.028 104.694V113.252H611.838H615.079H615.889V104.694L615.079 102.982Z" fill="#D0CFCE" stroke="#D0CFCE" stroke-width="2" stroke-miterlimit="10"/>
<path d="M616.859 103.886L613.388 103.827L609.917 103.768L611.703 100.773L613.489 97.7778L615.174 100.832L616.859 103.886Z" fill="#D22F27"/>
<path d="M612.486 112.225H602.278V151.25H612.486V112.225Z" fill="#9B9B9A"/>
<path d="M622.694 112.225H612.486V151.25H622.694V112.225Z" fill="#D0CFCE"/>
<path d="M607.382 107.5H604.319L603.299 108.667V113.333H604.319H607.382V111L608.403 108.667L607.382 107.5Z" fill="#9B9B9A"/>
<path d="M609.554 106.964L606.162 106.906L602.771 106.849L604.516 103.922L606.262 100.997L607.908 103.981L609.554 106.964Z" fill="#D22F27"/>
<path d="M622.645 107.971L619.854 107.923L617.062 107.875L618.499 105.432L619.936 102.988L621.291 105.479L622.645 107.971Z" stroke="black" stroke-width="2" stroke-linecap="round" stroke-linejoin="round"/>
<path d="M616.569 109.144V104.78L615.549 102.982H611.465L610.444 104.78V109.144" stroke="black" stroke-width="2" stroke-linecap="round" stroke-linejoin="round"/>
<path d="M616.859 103.886L613.388 103.827L609.917 103.768L611.703 100.773L613.489 97.7778L615.174 100.832L616.859 103.886Z" stroke="black" stroke-width="2" stroke-linecap="round" stroke-linejoin="round"/>
<path d="M612.486 112.225H602.278V151.25H612.486V112.225Z" stroke="black" stroke-width="2" stroke-linecap="round" stroke-linejoin="round"/>
<path d="M622.694 112.225H612.486V151.25H622.694V112.225Z" stroke="black" stroke-width="2" stroke-linecap="round" stroke-linejoin="round"/>
<path d="M615.549 116.333V118.387" stroke="black" stroke-width="2" stroke-linecap="round" stroke-linejoin="round"/>
<path d="M618.611 126.603V128.657" stroke="black" stroke-width="2" stroke-linecap="round" stroke-linejoin="round"/>
<path d="M615.549 138.926V140.98" stroke="black" stroke-width="2" stroke-linecap="round" stroke-linejoin="round"/>
<path d="M603.299 107.09V111.198" stroke="black" stroke-width="2" stroke-linecap="round" stroke-linejoin="round"/>
<path d="M609.554 106.964L606.162 106.906L602.771 106.849L604.516 103.922L606.262 100.997L607.908 103.981L609.554 106.964Z" stroke="black" stroke-width="2" stroke-linejoin="round"/>
<path d="M621.674 112.225V108.117" stroke="black" stroke-width="2" stroke-linecap="round" stroke-linejoin="round"/>
<path d="M606.361 126.603V128.657" stroke="black" stroke-width="2" stroke-linecap="round" stroke-linejoin="round"/>
<path d="M609.424 138.926V140.98" stroke="black" stroke-width="2" stroke-linecap="round" stroke-linejoin="round"/>
<path d="M613.507 107.09H613.518" stroke="black" stroke-width="2" stroke-linecap="round" stroke-linejoin="round"/>
<path d="M127.085 660.929L131.379 666.576L135.674 672.225H127.085H118.496L122.791 666.576L127.085 660.929Z" fill="#EA5A47"/>
<path d="M136.645 667.971L133.854 667.923L131.062 667.875L132.499 665.432L133.936 662.988L135.291 665.479L136.645 667.971Z" fill="#D22F27"/>
<path d="M130.474 668.243L133.651 670.557L133.729 672.198L135.769 672.1L135.573 667.996" fill="#D0CFCE"/>
<path d="M129.079 662.982H125.838L125.028 664.694V673.252H125.838H129.079H129.889V664.694L129.079 662.982Z" fill="#D0CFCE" stroke="#D0CFCE" stroke-width="2" stroke-miterlimit="10"/>
<path d="M130.859 663.886L127.388 663.827L123.917 663.768L125.703 660.773L127.489 657.778L129.174 660.832L130.859 663.886Z" fill="#D22F27"/>
<path d="M126.486 672.225H116.278V711.25H126.486V672.225Z" fill="#9B9B9A"/>
<path d="M136.694 672.225H126.486V711.25H136.694V672.225Z" fill="#D0CFCE"/>
<path d="M121.382 667.5H118.319L117.299 668.667V673.333H118.319H121.382V671L122.403 668.667L121.382 667.5Z" fill="#9B9B9A"/>
<path d="M123.554 666.964L120.162 666.906L116.771 666.849L118.516 663.922L120.262 660.997L121.908 663.981L123.554 666.964Z" fill="#D22F27"/>
<path d="M136.645 667.971L133.854 667.923L131.062 667.875L132.499 665.432L133.936 662.988L135.291 665.479L136.645 667.971Z" stroke="black" stroke-width="2" stroke-linecap="round" stroke-linejoin="round"/>
<path d="M130.569 669.144V664.78L129.549 662.982H125.465L124.444 664.78V669.144" stroke="black" stroke-width="2" stroke-linecap="round" stroke-linejoin="round"/>
<path d="M130.859 663.886L127.388 663.827L123.917 663.768L125.703 660.773L127.489 657.778L129.174 660.832L130.859 663.886Z" stroke="black" stroke-width="2" stroke-linecap="round" stroke-linejoin="round"/>
<path d="M126.486 672.225H116.278V711.25H126.486V672.225Z" stroke="black" stroke-width="2" stroke-linecap="round" stroke-linejoin="round"/>
<path d="M136.694 672.225H126.486V711.25H136.694V672.225Z" stroke="black" stroke-width="2" stroke-linecap="round" stroke-linejoin="round"/>
<path d="M129.549 676.333V678.387" stroke="black" stroke-width="2" stroke-linecap="round" stroke-linejoin="round"/>
<path d="M132.611 686.603V688.657" stroke="black" stroke-width="2" stroke-linecap="round" stroke-linejoin="round"/>
<path d="M129.549 698.926V700.98" stroke="black" stroke-width="2" stroke-linecap="round" stroke-linejoin="round"/>
<path d="M117.299 667.09V671.198" stroke="black" stroke-width="2" stroke-linecap="round" stroke-linejoin="round"/>
<path d="M123.554 666.964L120.162 666.906L116.771 666.849L118.516 663.922L120.262 660.997L121.908 663.981L123.554 666.964Z" stroke="black" stroke-width="2" stroke-linejoin="round"/>
<path d="M135.674 672.225V668.117" stroke="black" stroke-width="2" stroke-linecap="round" stroke-linejoin="round"/>
<path d="M120.361 686.603V688.657" stroke="black" stroke-width="2" stroke-linecap="round" stroke-linejoin="round"/>
<path d="M123.424 698.926V700.98" stroke="black" stroke-width="2" stroke-linecap="round" stroke-linejoin="round"/>
<path d="M127.507 667.09H127.518" stroke="black" stroke-width="2" stroke-linecap="round" stroke-linejoin="round"/>
<path d="M694.085 740.929L698.379 746.576L702.674 752.225H694.085H685.496L689.791 746.576L694.085 740.929Z" fill="#EA5A47"/>
<path d="M703.645 747.971L700.854 747.923L698.062 747.875L699.499 745.432L700.936 742.988L702.291 745.479L703.645 747.971Z" fill="#D22F27"/>
<path d="M697.474 748.243L700.651 750.557L700.729 752.198L702.769 752.1L702.572 747.996" fill="#D0CFCE"/>
<path d="M696.079 742.982H692.838L692.028 744.694V753.252H692.838H696.079H696.889V744.694L696.079 742.982Z" fill="#D0CFCE" stroke="#D0CFCE" stroke-width="2" stroke-miterlimit="10"/>
<path d="M697.859 743.886L694.388 743.827L690.917 743.768L692.703 740.773L694.489 737.778L696.174 740.832L697.859 743.886Z" fill="#D22F27"/>
<path d="M693.486 752.225H683.278V791.25H693.486V752.225Z" fill="#9B9B9A"/>
<path d="M703.694 752.225H693.486V791.25H703.694V752.225Z" fill="#D0CFCE"/>
<path d="M688.382 747.5H685.319L684.299 748.667V753.333H685.319H688.382V751L689.403 748.667L688.382 747.5Z" fill="#9B9B9A"/>
<path d="M690.554 746.964L687.162 746.906L683.771 746.849L685.516 743.922L687.262 740.997L688.908 743.981L690.554 746.964Z" fill="#D22F27"/>
<path d="M703.645 747.971L700.854 747.923L698.062 747.875L699.499 745.432L700.936 742.988L702.291 745.479L703.645 747.971Z" stroke="black" stroke-width="2" stroke-linecap="round" stroke-linejoin="round"/>
<path d="M697.569 749.144V744.78L696.549 742.982H692.465L691.444 744.78V749.144" stroke="black" stroke-width="2" stroke-linecap="round" stroke-linejoin="round"/>
<path d="M697.859 743.886L694.388 743.827L690.917 743.768L692.703 740.773L694.489 737.778L696.174 740.832L697.859 743.886Z" stroke="black" stroke-width="2" stroke-linecap="round" stroke-linejoin="round"/>
<path d="M693.486 752.225H683.278V791.25H693.486V752.225Z" stroke="black" stroke-width="2" stroke-linecap="round" stroke-linejoin="round"/>
<path d="M703.694 752.225H693.486V791.25H703.694V752.225Z" stroke="black" stroke-width="2" stroke-linecap="round" stroke-linejoin="round"/>
<path d="M696.549 756.333V758.387" stroke="black" stroke-width="2" stroke-linecap="round" stroke-linejoin="round"/>
<path d="M699.611 766.603V768.657" stroke="black" stroke-width="2" stroke-linecap="round" stroke-linejoin="round"/>
<path d="M696.549 778.926V780.98" stroke="black" stroke-width="2" stroke-linecap="round" stroke-linejoin="round"/>
<path d="M684.299 747.09V751.198" stroke="black" stroke-width="2" stroke-linecap="round" stroke-linejoin="round"/>
<path d="M690.554 746.964L687.162 746.906L683.771 746.849L685.516 743.922L687.262 740.997L688.908 743.981L690.554 746.964Z" stroke="black" stroke-width="2" stroke-linejoin="round"/>
<path d="M702.674 752.225V748.117" stroke="black" stroke-width="2" stroke-linecap="round" stroke-linejoin="round"/>
<path d="M687.361 766.603V768.657" stroke="black" stroke-width="2" stroke-linecap="round" stroke-linejoin="round"/>
<path d="M690.424 778.926V780.98" stroke="black" stroke-width="2" stroke-linecap="round" stroke-linejoin="round"/>
<path d="M694.507 747.09H694.518" stroke="black" stroke-width="2" stroke-linecap="round" stroke-linejoin="round"/>
</g>
<defs>
<clipPath id="clip0_2_2">
<rect width="820" height="810" fill="white"/>
</clipPath>
</defs>
</svg>
