<svg width="839" height="866" viewBox="0 0 839 866" fill="none" xmlns="http://www.w3.org/2000/svg">
<g clip-path="url(#clip0_14_1081)">
<rect width="839" height="866" fill="white"/>
<rect x="416" y="11" width="411" height="426" rx="18" fill="#9FE26B"/>
<rect x="413" y="428" width="414" height="426" rx="18" fill="#BF9FF4"/>
<rect x="11" y="428" width="411" height="426" rx="18" fill="#EDA1E5"/>
<path d="M11 28C11 18.0589 19.0589 10 29 10H403C412.941 10 421 18.0589 421 28V416C421 425.941 412.941 434 403 434H29C19.0589 434 11 425.941 11 416V28Z" fill="#FFE665"/>
<rect x="101" y="20" width="70" height="70" rx="10" fill="#B4F6FF" stroke="#636363" stroke-width="2" stroke-linecap="round" stroke-linejoin="round"/>
<rect x="182" y="20" width="70" height="70" rx="10" fill="#B4F6FF" stroke="#636363" stroke-width="2" stroke-linecap="round" stroke-linejoin="round"/>
<rect x="263" y="20" width="70" height="70" rx="10" fill="#B4F6FF" stroke="#636363" stroke-width="2" stroke-linecap="round" stroke-linejoin="round"/>
<rect x="344" y="20" width="70" height="70" rx="10" fill="#B4F6FF" stroke="#636363" stroke-width="2" stroke-linecap="round" stroke-linejoin="round"/>
<rect x="425" y="20" width="70" height="70" rx="10" fill="#B4F6FF" stroke="#636363" stroke-width="2" stroke-linecap="round" stroke-linejoin="round"/>
<rect x="506" y="20" width="70" height="70" rx="10" fill="#B4F6FF" stroke="#636363" stroke-width="2" stroke-linecap="round" stroke-linejoin="round"/>
<rect x="587" y="20" width="70" height="70" rx="10" fill="#B4F6FF" stroke="#636363" stroke-width="2" stroke-linecap="round" stroke-linejoin="round"/>
<rect x="668" y="20" width="70" height="70" rx="10" fill="#B4F6FF" stroke="#636363" stroke-width="2" stroke-linecap="round" stroke-linejoin="round"/>
<rect x="749" y="20" width="70" height="70" rx="10" fill="#B4F6FF" stroke="#636363" stroke-width="2" stroke-linecap="round" stroke-linejoin="round"/>
<rect x="20" y="20" width="70" height="70" rx="10" fill="#B4F6FF" stroke="#636363" stroke-width="2" stroke-linecap="round" stroke-linejoin="round"/>
<rect x="101" y="272" width="70" height="70" rx="10" fill="#B4F6FF" stroke="#636363" stroke-width="2" stroke-linecap="round" stroke-linejoin="round"/>
<rect x="182" y="272" width="70" height="70" rx="10" fill="#B4F6FF" stroke="#636363" stroke-width="2" stroke-linecap="round" stroke-linejoin="round"/>
<rect x="344" y="272" width="70" height="70" rx="10" fill="#B4F6FF" stroke="#636363" stroke-width="2" stroke-linecap="round" stroke-linejoin="round"/>
<rect x="425" y="272" width="70" height="70" rx="10" fill="#B4F6FF" stroke="#636363" stroke-width="2" stroke-linecap="round" stroke-linejoin="round"/>
<rect x="506" y="272" width="70" height="70" rx="10" fill="#B4F6FF" stroke="#636363" stroke-width="2" stroke-linecap="round" stroke-linejoin="round"/>
<rect x="587" y="272" width="70" height="70" rx="10" fill="#B4F6FF" stroke="#636363" stroke-width="2" stroke-linecap="round" stroke-linejoin="round"/>
<rect x="668" y="272" width="70" height="70" rx="10" fill="#B4F6FF" stroke="#636363" stroke-width="2" stroke-linecap="round" stroke-linejoin="round"/>
<rect x="749" y="272" width="70" height="70" rx="10" fill="#B4F6FF" stroke="#636363" stroke-width="2" stroke-linecap="round" stroke-linejoin="round"/>
<rect x="20" y="272" width="70" height="70" rx="10" fill="#B4F6FF" stroke="#636363" stroke-width="2" stroke-linecap="round" stroke-linejoin="round"/>
<rect x="100" y="356" width="70" height="70" rx="10" fill="#B4F6FF" stroke="#636363" stroke-width="2" stroke-linecap="round" stroke-linejoin="round"/>
<rect x="181" y="356" width="70" height="70" rx="10" fill="#B4F6FF" stroke="#636363" stroke-width="2" stroke-linecap="round" stroke-linejoin="round"/>
<rect x="262" y="356" width="70" height="70" rx="10" fill="#B4F6FF" stroke="#636363" stroke-width="2" stroke-linecap="round" stroke-linejoin="round"/>
<rect x="343" y="356" width="70" height="70" rx="10" fill="#B4F6FF" stroke="#636363" stroke-width="2" stroke-linecap="round" stroke-linejoin="round"/>
<rect x="424" y="356" width="70" height="70" rx="10" fill="#B4F6FF" stroke="#636363" stroke-width="2" stroke-linecap="round" stroke-linejoin="round"/>
<rect x="505" y="356" width="70" height="70" rx="10" fill="#B4F6FF" stroke="#636363" stroke-width="2" stroke-linecap="round" stroke-linejoin="round"/>
<rect x="586" y="356" width="70" height="70" rx="10" fill="#B4F6FF" stroke="#636363" stroke-width="2" stroke-linecap="round" stroke-linejoin="round"/>
<rect x="667" y="356" width="70" height="70" rx="10" fill="#B4F6FF" stroke="#636363" stroke-width="2" stroke-linecap="round" stroke-linejoin="round"/>
<rect x="748" y="356" width="70" height="70" rx="10" fill="#B4F6FF" stroke="#636363" stroke-width="2" stroke-linecap="round" stroke-linejoin="round"/>
<rect x="19" y="356" width="70" height="70" rx="10" fill="#B4F6FF" stroke="#636363" stroke-width="2" stroke-linecap="round" stroke-linejoin="round"/>
<rect x="100" y="440" width="70" height="70" rx="10" fill="#B4F6FF" stroke="#636363" stroke-width="2" stroke-linecap="round" stroke-linejoin="round"/>
<rect x="181" y="440" width="70" height="70" rx="10" fill="#B4F6FF" stroke="#636363" stroke-width="2" stroke-linecap="round" stroke-linejoin="round"/>
<rect x="262" y="440" width="70" height="70" rx="10" fill="#B4F6FF" stroke="#636363" stroke-width="2" stroke-linecap="round" stroke-linejoin="round"/>
<rect x="343" y="440" width="70" height="70" rx="10" fill="#B4F6FF" stroke="#636363" stroke-width="2" stroke-linecap="round" stroke-linejoin="round"/>
<rect x="424" y="440" width="70" height="70" rx="10" fill="#B4F6FF" stroke="#636363" stroke-width="2" stroke-linecap="round" stroke-linejoin="round"/>
<rect x="505" y="440" width="70" height="70" rx="10" fill="#B4F6FF" stroke="#636363" stroke-width="2" stroke-linecap="round" stroke-linejoin="round"/>
<rect x="586" y="440" width="70" height="70" rx="10" fill="#B4F6FF" stroke="#636363" stroke-width="2" stroke-linecap="round" stroke-linejoin="round"/>
<rect x="667" y="440" width="70" height="70" rx="10" fill="#B4F6FF" stroke="#636363" stroke-width="2" stroke-linecap="round" stroke-linejoin="round"/>
<rect x="748" y="440" width="70" height="70" rx="10" fill="#B4F6FF" stroke="#636363" stroke-width="2" stroke-linecap="round" stroke-linejoin="round"/>
<rect x="19" y="440" width="70" height="70" rx="10" fill="#B4F6FF" stroke="#636363" stroke-width="2" stroke-linecap="round" stroke-linejoin="round"/>
<rect x="101" y="524" width="70" height="70" rx="10" fill="#B4F6FF" stroke="#636363" stroke-width="2" stroke-linecap="round" stroke-linejoin="round"/>
<rect x="182" y="524" width="70" height="70" rx="10" fill="#B4F6FF" stroke="#636363" stroke-width="2" stroke-linecap="round" stroke-linejoin="round"/>
<rect x="263" y="524" width="70" height="70" rx="10" fill="#B4F6FF" stroke="#636363" stroke-width="2" stroke-linecap="round" stroke-linejoin="round"/>
<rect x="344" y="524" width="70" height="70" rx="10" fill="#B4F6FF" stroke="#636363" stroke-width="2" stroke-linecap="round" stroke-linejoin="round"/>
<rect x="425" y="524" width="70" height="70" rx="10" fill="#B4F6FF" stroke="#636363" stroke-width="2" stroke-linecap="round" stroke-linejoin="round"/>
<rect x="506" y="524" width="70" height="70" rx="10" fill="#B4F6FF" stroke="#636363" stroke-width="2" stroke-linecap="round" stroke-linejoin="round"/>
<rect x="587" y="524" width="70" height="70" rx="10" fill="#B4F6FF" stroke="#636363" stroke-width="2" stroke-linecap="round" stroke-linejoin="round"/>
<rect x="668" y="524" width="70" height="70" rx="10" fill="#B4F6FF" stroke="#636363" stroke-width="2" stroke-linecap="round" stroke-linejoin="round"/>
<rect x="749" y="524" width="70" height="70" rx="10" fill="#B4F6FF" stroke="#636363" stroke-width="2" stroke-linecap="round" stroke-linejoin="round"/>
<rect x="20" y="524" width="70" height="70" rx="10" fill="#B4F6FF" stroke="#636363" stroke-width="2" stroke-linecap="round" stroke-linejoin="round"/>
<rect x="100" y="608" width="70" height="70" rx="10" fill="#B4F6FF" stroke="#636363" stroke-width="2" stroke-linecap="round" stroke-linejoin="round"/>
<rect x="181" y="608" width="70" height="70" rx="10" fill="#B4F6FF" stroke="#636363" stroke-width="2" stroke-linecap="round" stroke-linejoin="round"/>
<rect x="262" y="608" width="70" height="70" rx="10" fill="#B4F6FF" stroke="#636363" stroke-width="2" stroke-linecap="round" stroke-linejoin="round"/>
<rect x="343" y="608" width="70" height="70" rx="10" fill="#B4F6FF" stroke="#636363" stroke-width="2" stroke-linecap="round" stroke-linejoin="round"/>
<rect x="424" y="608" width="70" height="70" rx="10" fill="#B4F6FF" stroke="#636363" stroke-width="2" stroke-linecap="round" stroke-linejoin="round"/>
<rect x="505" y="608" width="70" height="70" rx="10" fill="#B4F6FF" stroke="#636363" stroke-width="2" stroke-linecap="round" stroke-linejoin="round"/>
<rect x="586" y="608" width="70" height="70" rx="10" fill="#B4F6FF" stroke="#636363" stroke-width="2" stroke-linecap="round" stroke-linejoin="round"/>
<rect x="667" y="608" width="70" height="70" rx="10" fill="#B4F6FF" stroke="#636363" stroke-width="2" stroke-linecap="round" stroke-linejoin="round"/>
<rect x="748" y="608" width="70" height="70" rx="10" fill="#B4F6FF" stroke="#636363" stroke-width="2" stroke-linecap="round" stroke-linejoin="round"/>
<rect x="19" y="608" width="70" height="70" rx="10" fill="#B4F6FF" stroke="#636363" stroke-width="2" stroke-linecap="round" stroke-linejoin="round"/>
<rect x="181" y="692" width="70" height="70" rx="10" fill="#B4F6FF" stroke="#636363" stroke-width="2" stroke-linecap="round" stroke-linejoin="round"/>
<rect x="262" y="692" width="70" height="70" rx="10" fill="#B4F6FF" stroke="#636363" stroke-width="2" stroke-linecap="round" stroke-linejoin="round"/>
<rect x="343" y="692" width="70" height="70" rx="10" fill="#B4F6FF" stroke="#636363" stroke-width="2" stroke-linecap="round" stroke-linejoin="round"/>
<rect x="424" y="692" width="70" height="70" rx="10" fill="#B4F6FF" stroke="#636363" stroke-width="2" stroke-linecap="round" stroke-linejoin="round"/>
<rect x="505" y="692" width="70" height="70" rx="10" fill="#B4F6FF" stroke="#636363" stroke-width="2" stroke-linecap="round" stroke-linejoin="round"/>
<rect x="586" y="692" width="70" height="70" rx="10" fill="#B4F6FF" stroke="#636363" stroke-width="2" stroke-linecap="round" stroke-linejoin="round"/>
<rect x="667" y="692" width="70" height="70" rx="10" fill="#B4F6FF" stroke="#636363" stroke-width="2" stroke-linecap="round" stroke-linejoin="round"/>
<rect x="748" y="692" width="70" height="70" rx="10" fill="#B4F6FF" stroke="#636363" stroke-width="2" stroke-linecap="round" stroke-linejoin="round"/>
<rect x="19" y="692" width="70" height="70" rx="10" fill="#B4F6FF" stroke="#636363" stroke-width="2" stroke-linecap="round" stroke-linejoin="round"/>
<rect x="101" y="776" width="70" height="70" rx="10" fill="#B4F6FF" stroke="#636363" stroke-width="2" stroke-linecap="round" stroke-linejoin="round"/>
<rect x="182" y="776" width="70" height="70" rx="10" fill="#B4F6FF" stroke="#636363" stroke-width="2" stroke-linecap="round" stroke-linejoin="round"/>
<rect x="263" y="776" width="70" height="70" rx="10" fill="#B4F6FF" stroke="#636363" stroke-width="2" stroke-linecap="round" stroke-linejoin="round"/>
<rect x="344" y="776" width="70" height="70" rx="10" fill="#B4F6FF" stroke="#636363" stroke-width="2" stroke-linecap="round" stroke-linejoin="round"/>
<rect x="425" y="776" width="70" height="70" rx="10" fill="#B4F6FF" stroke="#636363" stroke-width="2" stroke-linecap="round" stroke-linejoin="round"/>
<rect x="506" y="776" width="70" height="70" rx="10" fill="#B4F6FF" stroke="#636363" stroke-width="2" stroke-linecap="round" stroke-linejoin="round"/>
<rect x="587" y="776" width="70" height="70" rx="10" fill="#B4F6FF" stroke="#636363" stroke-width="2" stroke-linecap="round" stroke-linejoin="round"/>
<rect x="749" y="776" width="70" height="70" rx="10" fill="#B4F6FF" stroke="#636363" stroke-width="2" stroke-linecap="round" stroke-linejoin="round"/>
<rect x="20" y="776" width="70" height="70" rx="10" fill="#B4F6FF" stroke="#636363" stroke-width="2" stroke-linecap="round" stroke-linejoin="round"/>
<rect x="101" y="104" width="70" height="70" rx="10" fill="#B4F6FF" stroke="#636363" stroke-width="2" stroke-linecap="round" stroke-linejoin="round"/>
<rect x="182" y="104" width="70" height="70" rx="10" fill="#B4F6FF" stroke="#636363" stroke-width="2" stroke-linecap="round" stroke-linejoin="round"/>
<rect x="263" y="104" width="70" height="70" rx="10" fill="#B4F6FF" stroke="#636363" stroke-width="2" stroke-linecap="round" stroke-linejoin="round"/>
<rect x="344" y="104" width="70" height="70" rx="10" fill="#B4F6FF" stroke="#636363" stroke-width="2" stroke-linecap="round" stroke-linejoin="round"/>
<rect x="425" y="104" width="70" height="70" rx="10" fill="#B4F6FF" stroke="#636363" stroke-width="2" stroke-linecap="round" stroke-linejoin="round"/>
<rect x="506" y="104" width="70" height="70" rx="10" fill="#B4F6FF" stroke="#636363" stroke-width="2" stroke-linecap="round" stroke-linejoin="round"/>
<rect x="668" y="104" width="70" height="70" rx="10" fill="#B4F6FF" stroke="#636363" stroke-width="2" stroke-linecap="round" stroke-linejoin="round"/>
<rect x="749" y="104" width="70" height="70" rx="10" fill="#B4F6FF" stroke="#636363" stroke-width="2" stroke-linecap="round" stroke-linejoin="round"/>
<rect x="20" y="104" width="70" height="70" rx="10" fill="#B4F6FF" stroke="#636363" stroke-width="2" stroke-linecap="round" stroke-linejoin="round"/>
<rect x="182" y="188" width="70" height="70" rx="10" fill="#B4F6FF" stroke="#636363" stroke-width="2" stroke-linecap="round" stroke-linejoin="round"/>
<rect x="263" y="188" width="70" height="70" rx="10" fill="#B4F6FF" stroke="#636363" stroke-width="2" stroke-linecap="round" stroke-linejoin="round"/>
<rect x="344" y="188" width="70" height="70" rx="10" fill="#B4F6FF" stroke="#636363" stroke-width="2" stroke-linecap="round" stroke-linejoin="round"/>
<rect x="425" y="188" width="70" height="70" rx="10" fill="#B4F6FF" stroke="#636363" stroke-width="2" stroke-linecap="round" stroke-linejoin="round"/>
<rect x="506" y="188" width="70" height="70" rx="10" fill="#B4F6FF" stroke="#636363" stroke-width="2" stroke-linecap="round" stroke-linejoin="round"/>
<rect x="587" y="188" width="70" height="70" rx="10" fill="#B4F6FF" stroke="#636363" stroke-width="2" stroke-linecap="round" stroke-linejoin="round"/>
<rect x="668" y="188" width="70" height="70" rx="10" fill="#B4F6FF" stroke="#636363" stroke-width="2" stroke-linecap="round" stroke-linejoin="round"/>
<rect x="749" y="188" width="70" height="70" rx="10" fill="#B4F6FF" stroke="#636363" stroke-width="2" stroke-linecap="round" stroke-linejoin="round"/>
<rect x="20" y="188" width="70" height="70" rx="10" fill="#B4F6FF" stroke="#636363" stroke-width="2" stroke-linecap="round" stroke-linejoin="round"/>
<g filter="url(#filter0_d_14_1081)">
<rect x="101" y="188" width="70" height="70" rx="10" fill="#B4F6FF" stroke="black" stroke-width="2" stroke-linecap="round" stroke-linejoin="round" stroke-dasharray="5 5"/>
</g>
<path d="M149.565 234.182C149.605 234.616 149.506 235.05 149.281 235.43C149.056 235.81 148.715 236.118 148.302 236.314C146.493 237.173 142.721 238.236 135.025 238.425C134.48 238.439 133.955 238.445 133.449 238.445C126.186 238.445 122.856 237.131 121.485 236.31C121.128 236.098 120.841 235.797 120.656 235.441C120.47 235.084 120.394 234.686 120.435 234.291V223.266H149.574L149.565 234.182Z" fill="#C0A377"/>
<path d="M136.012 225.545C129.275 225.532 122.597 224.371 116.301 222.119C116.207 222.081 116.123 222.025 116.054 221.953C115.985 221.882 115.933 221.798 115.902 221.706C115.871 221.614 115.86 221.517 115.872 221.422C115.884 221.326 115.918 221.234 115.971 221.152C122.515 210.989 134.254 204.822 134.751 204.564C134.857 204.509 134.976 204.48 135.097 204.48C135.217 204.48 135.336 204.508 135.442 204.563C135.975 204.837 148.567 211.4 154.21 221.151C154.257 221.232 154.286 221.322 154.294 221.414C154.303 221.506 154.292 221.599 154.26 221.686C154.23 221.775 154.181 221.856 154.115 221.925C154.049 221.994 153.968 222.049 153.877 222.086C147.804 224.484 141.74 225.229 136.012 225.545Z" fill="#9ED6A3"/>
<path d="M133.53 238.45C131.909 238.45 130.897 238.389 130.818 238.385C130.642 238.374 130.478 238.3 130.357 238.179C130.237 238.058 130.17 237.899 130.17 237.733V227.551C130.17 227.465 130.188 227.38 130.223 227.301C130.257 227.222 130.309 227.15 130.373 227.089C130.438 227.028 130.514 226.98 130.598 226.948C130.683 226.915 130.773 226.898 130.864 226.898H139.301C139.485 226.898 139.662 226.967 139.792 227.089C139.922 227.212 139.995 227.378 139.995 227.551V237.549C139.995 237.712 139.93 237.869 139.814 237.989C139.697 238.11 139.537 238.185 139.364 238.2C137.067 238.398 135.036 238.45 133.53 238.45Z" fill="#9ED6A3"/>
<path d="M135.69 205.471C135.751 205.363 135.784 205.242 135.785 205.12C135.781 205.081 135.773 205.042 135.761 205.004C135.751 204.959 135.737 204.916 135.717 204.874C135.711 204.863 135.712 204.85 135.705 204.838C135.686 204.813 135.665 204.79 135.643 204.769C135.627 204.742 135.608 204.716 135.588 204.692C135.578 204.682 135.565 204.679 135.554 204.671C135.518 204.642 135.478 204.617 135.436 204.597C135.321 204.539 135.192 204.508 135.061 204.507C135.02 204.511 134.978 204.519 134.938 204.53C134.891 204.539 134.846 204.552 134.802 204.57C134.789 204.576 134.774 204.575 134.762 204.582C134.265 204.839 122.531 211.004 115.99 221.162C115.939 221.242 115.906 221.331 115.894 221.423C115.883 221.516 115.892 221.61 115.922 221.698C115.952 221.787 116.002 221.869 116.069 221.938C116.135 222.007 116.217 222.062 116.308 222.099C117.668 222.655 119.074 223.108 120.512 223.453C120.557 223.461 120.603 223.466 120.649 223.466L120.655 223.466H120.656L120.66 223.466C120.729 223.464 120.798 223.453 120.864 223.433C120.885 223.426 120.905 223.418 120.925 223.409C120.97 223.391 121.014 223.369 121.054 223.342C121.073 223.33 121.091 223.317 121.109 223.303C121.148 223.27 121.183 223.233 121.213 223.193C121.225 223.178 121.239 223.165 121.249 223.149L121.257 223.14C125.087 216.665 129.917 210.759 135.588 205.615C135.599 205.605 135.602 205.593 135.611 205.582C135.642 205.548 135.668 205.51 135.69 205.471V205.471Z" fill="#DBECF0"/>
<path d="M147.32 219.599C148.03 220.654 148.741 221.761 149.442 222.919" stroke="#493131" stroke-width="2" stroke-linecap="round" stroke-linejoin="round"/>
<path d="M148.879 224.914L148.871 234.215C148.906 234.522 148.841 234.832 148.683 235.103C148.526 235.374 148.283 235.594 147.989 235.731C146.47 236.452 142.869 237.579 135.007 237.772C126.842 237.973 123.272 236.607 121.858 235.76C121.606 235.609 121.404 235.395 121.275 235.141C121.146 234.887 121.096 234.605 121.129 234.325V224.914" stroke="#493131" stroke-linecap="round" stroke-linejoin="round"/>
<path d="M130.864 235.741V227.551H139.301V235.741" stroke="#493131" stroke-linecap="round" stroke-linejoin="round"/>
<path d="M153.581 221.473C147.974 211.784 135.098 205.153 135.098 205.153C135.098 205.153 123.104 211.375 116.584 221.5" stroke="#493131" stroke-linecap="round" stroke-linejoin="round"/>
<path d="M127.641 219.628C127.082 221.068 126.614 222.538 126.237 224.03" stroke="#493131" stroke-linecap="round" stroke-linejoin="round"/>
<path d="M132.254 224.772C132.254 224.772 132.45 222.563 132.927 219.533" stroke="#493131" stroke-linecap="round" stroke-linejoin="round"/>
<path d="M142.582 219.67C143.141 221.111 143.61 222.581 143.986 224.073" stroke="#493131" stroke-linecap="round" stroke-linejoin="round"/>
<path d="M122.778 219.494C122.067 220.549 121.36 221.656 120.655 222.814" stroke="#493131" stroke-linecap="round" stroke-linejoin="round"/>
<path d="M147.32 219.599C148.03 220.654 148.741 221.761 149.442 222.919" stroke="#493131" stroke-linecap="round" stroke-linejoin="round"/>
<g filter="url(#filter1_d_14_1081)">
<rect x="263" y="272" width="70" height="70" rx="10" fill="#B4F6FF" stroke="black" stroke-width="2" stroke-linecap="round" stroke-linejoin="round" stroke-dasharray="5 5"/>
<path d="M299.085 282.929L303.379 288.576L307.674 294.225H299.085H290.496L294.791 288.576L299.085 282.929Z" fill="#EA5A47"/>
<path d="M308.645 289.971L305.854 289.923L303.062 289.875L304.499 287.432L305.936 284.988L307.291 287.479L308.645 289.971Z" fill="#D22F27"/>
<path d="M302.474 290.243L305.651 292.557L305.729 294.198L307.769 294.1L307.573 289.996" fill="#D0CFCE"/>
<path d="M301.079 284.982H297.838L297.028 286.694V295.252H297.838H301.079H301.889V286.694L301.079 284.982Z" fill="#D0CFCE" stroke="#D0CFCE" stroke-width="2" stroke-miterlimit="10"/>
<path d="M302.859 285.886L299.388 285.827L295.917 285.768L297.704 282.773L299.49 279.778L301.174 282.832L302.859 285.886Z" fill="#D22F27"/>
<path d="M298.486 294.225H288.278V333.25H298.486V294.225Z" fill="#9B9B9A"/>
<path d="M308.695 294.225H298.486V333.25H308.695V294.225Z" fill="#D0CFCE"/>
<path d="M293.382 289.5H290.32L289.299 290.667V295.333H290.32H293.382V293L294.403 290.667L293.382 289.5Z" fill="#9B9B9A"/>
<path d="M295.554 288.964L292.162 288.906L288.771 288.849L290.516 285.922L292.262 282.997L293.908 285.981L295.554 288.964Z" fill="#D22F27"/>
<path d="M308.645 289.971L305.854 289.923L303.062 289.875L304.499 287.432L305.936 284.988L307.291 287.479L308.645 289.971Z" stroke="#564A4A" stroke-linecap="round" stroke-linejoin="round"/>
<path d="M302.569 291.144V286.78L301.549 284.982H297.465L296.444 286.78V291.144" stroke="#564A4A" stroke-linecap="round" stroke-linejoin="round"/>
<path d="M302.859 285.886L299.388 285.827L295.917 285.768L297.704 282.773L299.49 279.778L301.174 282.832L302.859 285.886Z" stroke="#564A4A" stroke-linecap="round" stroke-linejoin="round"/>
<path d="M298.486 294.225H288.278V333.25H298.486V294.225Z" stroke="#564A4A" stroke-linecap="round" stroke-linejoin="round"/>
<path d="M308.695 294.225H298.486V333.25H308.695V294.225Z" stroke="#564A4A" stroke-linecap="round" stroke-linejoin="round"/>
<path d="M301.549 298.333V300.387" stroke="#564A4A" stroke-linecap="round" stroke-linejoin="round"/>
<path d="M304.611 308.603V310.657" stroke="#564A4A" stroke-linecap="round" stroke-linejoin="round"/>
<path d="M301.549 320.926V322.98" stroke="#564A4A" stroke-linecap="round" stroke-linejoin="round"/>
<path d="M289.299 289.09V293.198" stroke="#564A4A" stroke-linecap="round" stroke-linejoin="round"/>
<path d="M295.554 288.964L292.162 288.906L288.771 288.849L290.516 285.922L292.262 282.997L293.908 285.981L295.554 288.964Z" stroke="#564A4A" stroke-linejoin="round"/>
<path d="M307.674 294.225V290.117" stroke="#564A4A" stroke-linecap="round" stroke-linejoin="round"/>
<path d="M292.361 308.603V310.657" stroke="#564A4A" stroke-linecap="round" stroke-linejoin="round"/>
<path d="M295.424 320.926V322.98" stroke="#564A4A" stroke-linecap="round" stroke-linejoin="round"/>
<path d="M299.507 289.09H299.518" stroke="#564A4A" stroke-linecap="round" stroke-linejoin="round"/>
</g>
<g filter="url(#filter2_d_14_1081)">
<rect x="587" y="104" width="70" height="70" rx="10" fill="#B4F6FF" stroke="black" stroke-width="2" stroke-linecap="round" stroke-linejoin="round" stroke-dasharray="5 5"/>
<path d="M623.085 114.929L627.379 120.576L631.674 126.225H623.085H614.496L618.791 120.576L623.085 114.929Z" fill="#EA5A47"/>
<path d="M632.645 121.971L629.854 121.923L627.062 121.875L628.499 119.432L629.936 116.988L631.291 119.479L632.645 121.971Z" fill="#D22F27"/>
<path d="M626.474 122.243L629.651 124.557L629.729 126.198L631.769 126.1L631.573 121.996" fill="#D0CFCE"/>
<path d="M625.079 116.982H621.838L621.028 118.694V127.252H621.838H625.079H625.889V118.694L625.079 116.982Z" fill="#D0CFCE" stroke="#D0CFCE" stroke-width="2" stroke-miterlimit="10"/>
<path d="M626.859 117.886L623.388 117.827L619.917 117.768L621.704 114.773L623.49 111.778L625.174 114.832L626.859 117.886Z" fill="#D22F27"/>
<path d="M622.486 126.225H612.278V165.25H622.486V126.225Z" fill="#9B9B9A"/>
<path d="M632.695 126.225H622.486V165.25H632.695V126.225Z" fill="#D0CFCE"/>
<path d="M617.382 121.5H614.32L613.299 122.667V127.333H614.32H617.382V125L618.403 122.667L617.382 121.5Z" fill="#9B9B9A"/>
<path d="M619.554 120.964L616.162 120.906L612.771 120.849L614.516 117.922L616.262 114.997L617.908 117.981L619.554 120.964Z" fill="#D22F27"/>
<path d="M632.645 121.971L629.854 121.923L627.062 121.875L628.499 119.432L629.936 116.988L631.291 119.479L632.645 121.971Z" stroke="#564A4A" stroke-linecap="round" stroke-linejoin="round"/>
<path d="M626.569 123.144V118.78L625.549 116.982H621.465L620.444 118.78V123.144" stroke="#564A4A" stroke-linecap="round" stroke-linejoin="round"/>
<path d="M626.859 117.886L623.388 117.827L619.917 117.768L621.704 114.773L623.49 111.778L625.174 114.832L626.859 117.886Z" stroke="#564A4A" stroke-linecap="round" stroke-linejoin="round"/>
<path d="M622.486 126.225H612.278V165.25H622.486V126.225Z" stroke="#564A4A" stroke-linecap="round" stroke-linejoin="round"/>
<path d="M632.695 126.225H622.486V165.25H632.695V126.225Z" stroke="#564A4A" stroke-linecap="round" stroke-linejoin="round"/>
<path d="M625.549 130.333V132.387" stroke="#564A4A" stroke-linecap="round" stroke-linejoin="round"/>
<path d="M628.611 140.603V142.657" stroke="#564A4A" stroke-linecap="round" stroke-linejoin="round"/>
<path d="M625.549 152.926V154.98" stroke="#564A4A" stroke-linecap="round" stroke-linejoin="round"/>
<path d="M613.299 121.09V125.198" stroke="#564A4A" stroke-linecap="round" stroke-linejoin="round"/>
<path d="M619.554 120.964L616.162 120.906L612.771 120.849L614.516 117.922L616.262 114.997L617.908 117.981L619.554 120.964Z" stroke="#564A4A" stroke-linejoin="round"/>
<path d="M631.674 126.225V122.117" stroke="#564A4A" stroke-linecap="round" stroke-linejoin="round"/>
<path d="M616.361 140.603V142.657" stroke="#564A4A" stroke-linecap="round" stroke-linejoin="round"/>
<path d="M619.424 152.926V154.98" stroke="#564A4A" stroke-linecap="round" stroke-linejoin="round"/>
<path d="M623.507 121.09H623.518" stroke="#564A4A" stroke-linecap="round" stroke-linejoin="round"/>
</g>
<g filter="url(#filter3_d_14_1081)">
<rect x="668" y="776" width="70" height="70" rx="10" fill="#B4F6FF" stroke="black" stroke-width="2" stroke-linecap="round" stroke-linejoin="round" stroke-dasharray="5 5"/>
<path d="M704.085 786.929L708.379 792.576L712.674 798.225H704.085H695.496L699.791 792.576L704.085 786.929Z" fill="#EA5A47"/>
<path d="M713.645 793.971L710.854 793.923L708.062 793.875L709.499 791.432L710.936 788.988L712.291 791.479L713.645 793.971Z" fill="#D22F27"/>
<path d="M707.474 794.243L710.651 796.557L710.729 798.198L712.769 798.1L712.573 793.996" fill="#D0CFCE"/>
<path d="M706.079 788.982H702.838L702.028 790.694V799.252H702.838H706.079H706.889V790.694L706.079 788.982Z" fill="#D0CFCE" stroke="#D0CFCE" stroke-width="2" stroke-miterlimit="10"/>
<path d="M707.859 789.886L704.388 789.827L700.917 789.768L702.704 786.773L704.49 783.778L706.174 786.832L707.859 789.886Z" fill="#D22F27"/>
<path d="M703.486 798.225H693.278V837.25H703.486V798.225Z" fill="#9B9B9A"/>
<path d="M713.695 798.225H703.486V837.25H713.695V798.225Z" fill="#D0CFCE"/>
<path d="M698.382 793.5H695.32L694.299 794.667V799.333H695.32H698.382V797L699.403 794.667L698.382 793.5Z" fill="#9B9B9A"/>
<path d="M700.554 792.964L697.162 792.906L693.771 792.849L695.516 789.922L697.262 786.997L698.908 789.981L700.554 792.964Z" fill="#D22F27"/>
<path d="M713.645 793.971L710.854 793.923L708.062 793.875L709.499 791.432L710.936 788.988L712.291 791.479L713.645 793.971Z" stroke="#564A4A" stroke-linecap="round" stroke-linejoin="round"/>
<path d="M707.569 795.144V790.78L706.549 788.982H702.465L701.444 790.78V795.144" stroke="#564A4A" stroke-linecap="round" stroke-linejoin="round"/>
<path d="M707.859 789.886L704.388 789.827L700.917 789.768L702.704 786.773L704.49 783.778L706.174 786.832L707.859 789.886Z" stroke="#564A4A" stroke-linecap="round" stroke-linejoin="round"/>
<path d="M703.486 798.225H693.278V837.25H703.486V798.225Z" stroke="#564A4A" stroke-linecap="round" stroke-linejoin="round"/>
<path d="M713.695 798.225H703.486V837.25H713.695V798.225Z" stroke="#564A4A" stroke-linecap="round" stroke-linejoin="round"/>
<path d="M706.549 802.333V804.387" stroke="#564A4A" stroke-linecap="round" stroke-linejoin="round"/>
<path d="M709.611 812.603V814.657" stroke="#564A4A" stroke-linecap="round" stroke-linejoin="round"/>
<path d="M706.549 824.926V826.98" stroke="#564A4A" stroke-linecap="round" stroke-linejoin="round"/>
<path d="M694.299 793.09V797.198" stroke="#564A4A" stroke-linecap="round" stroke-linejoin="round"/>
<path d="M700.554 792.964L697.162 792.906L693.771 792.849L695.516 789.922L697.262 786.997L698.908 789.981L700.554 792.964Z" stroke="#564A4A" stroke-linejoin="round"/>
<path d="M712.674 798.225V794.117" stroke="#564A4A" stroke-linecap="round" stroke-linejoin="round"/>
<path d="M697.361 812.603V814.657" stroke="#564A4A" stroke-linecap="round" stroke-linejoin="round"/>
<path d="M700.424 824.926V826.98" stroke="#564A4A" stroke-linecap="round" stroke-linejoin="round"/>
<path d="M704.507 793.09H704.518" stroke="#564A4A" stroke-linecap="round" stroke-linejoin="round"/>
</g>
<g filter="url(#filter4_d_14_1081)">
<rect x="101" y="691" width="70" height="70" rx="10" fill="#B4F6FF" stroke="black" stroke-width="2" stroke-linecap="round" stroke-linejoin="round" stroke-dasharray="5 5"/>
<path d="M137.085 701.929L141.379 707.576L145.674 713.225H137.085H128.496L132.791 707.576L137.085 701.929Z" fill="#EA5A47"/>
<path d="M146.645 708.971L143.854 708.923L141.062 708.875L142.499 706.432L143.936 703.988L145.291 706.479L146.645 708.971Z" fill="#D22F27"/>
<path d="M140.474 709.243L143.651 711.557L143.729 713.198L145.769 713.1L145.573 708.996" fill="#D0CFCE"/>
<path d="M139.079 703.982H135.838L135.028 705.694V714.252H135.838H139.079H139.889V705.694L139.079 703.982Z" fill="#D0CFCE" stroke="#D0CFCE" stroke-width="2" stroke-miterlimit="10"/>
<path d="M140.859 704.886L137.388 704.827L133.917 704.768L135.703 701.773L137.489 698.778L139.174 701.832L140.859 704.886Z" fill="#D22F27"/>
<path d="M136.486 713.225H126.278V752.25H136.486V713.225Z" fill="#9B9B9A"/>
<path d="M146.694 713.225H136.486V752.25H146.694V713.225Z" fill="#D0CFCE"/>
<path d="M131.382 708.5H128.319L127.299 709.667V714.333H128.319H131.382V712L132.403 709.667L131.382 708.5Z" fill="#9B9B9A"/>
<path d="M133.554 707.964L130.162 707.906L126.771 707.849L128.516 704.922L130.262 701.997L131.908 704.981L133.554 707.964Z" fill="#D22F27"/>
<path d="M146.645 708.971L143.854 708.923L141.062 708.875L142.499 706.432L143.936 703.988L145.291 706.479L146.645 708.971Z" stroke="#564A4A" stroke-linecap="round" stroke-linejoin="round"/>
<path d="M140.569 710.144V705.78L139.549 703.982H135.465L134.444 705.78V710.144" stroke="#564A4A" stroke-linecap="round" stroke-linejoin="round"/>
<path d="M140.859 704.886L137.388 704.827L133.917 704.768L135.703 701.773L137.489 698.778L139.174 701.832L140.859 704.886Z" stroke="#564A4A" stroke-linecap="round" stroke-linejoin="round"/>
<path d="M136.486 713.225H126.278V752.25H136.486V713.225Z" stroke="#564A4A" stroke-linecap="round" stroke-linejoin="round"/>
<path d="M146.694 713.225H136.486V752.25H146.694V713.225Z" stroke="#564A4A" stroke-linecap="round" stroke-linejoin="round"/>
<path d="M139.549 717.333V719.387" stroke="#564A4A" stroke-linecap="round" stroke-linejoin="round"/>
<path d="M142.611 727.603V729.657" stroke="#564A4A" stroke-linecap="round" stroke-linejoin="round"/>
<path d="M139.549 739.926V741.98" stroke="#564A4A" stroke-linecap="round" stroke-linejoin="round"/>
<path d="M127.299 708.09V712.198" stroke="#564A4A" stroke-linecap="round" stroke-linejoin="round"/>
<path d="M133.554 707.964L130.162 707.906L126.771 707.849L128.516 704.922L130.262 701.997L131.908 704.981L133.554 707.964Z" stroke="#564A4A" stroke-linejoin="round"/>
<path d="M145.674 713.225V709.117" stroke="#564A4A" stroke-linecap="round" stroke-linejoin="round"/>
<path d="M130.361 727.603V729.657" stroke="#564A4A" stroke-linecap="round" stroke-linejoin="round"/>
<path d="M133.424 739.926V741.98" stroke="#564A4A" stroke-linecap="round" stroke-linejoin="round"/>
<path d="M137.507 708.09H137.518" stroke="#564A4A" stroke-linecap="round" stroke-linejoin="round"/>
</g>
</g>
<defs>
<filter id="filter0_d_14_1081" x="100" y="186" width="82" height="82" filterUnits="userSpaceOnUse" color-interpolation-filters="sRGB">
<feFlood flood-opacity="0" result="BackgroundImageFix"/>
<feColorMatrix in="SourceAlpha" type="matrix" values="0 0 0 0 0 0 0 0 0 0 0 0 0 0 0 0 0 0 127 0" result="hardAlpha"/>
<feOffset dx="5" dy="4"/>
<feGaussianBlur stdDeviation="2.5"/>
<feComposite in2="hardAlpha" operator="out"/>
<feColorMatrix type="matrix" values="0 0 0 0 0 0 0 0 0 0 0 0 0 0 0 0 0 0 0.51 0"/>
<feBlend mode="hard-light" in2="BackgroundImageFix" result="effect1_dropShadow_14_1081"/>
<feBlend mode="normal" in="SourceGraphic" in2="effect1_dropShadow_14_1081" result="shape"/>
</filter>
<filter id="filter1_d_14_1081" x="262" y="270" width="82" height="82" filterUnits="userSpaceOnUse" color-interpolation-filters="sRGB">
<feFlood flood-opacity="0" result="BackgroundImageFix"/>
<feColorMatrix in="SourceAlpha" type="matrix" values="0 0 0 0 0 0 0 0 0 0 0 0 0 0 0 0 0 0 127 0" result="hardAlpha"/>
<feOffset dx="5" dy="4"/>
<feGaussianBlur stdDeviation="2.5"/>
<feComposite in2="hardAlpha" operator="out"/>
<feColorMatrix type="matrix" values="0 0 0 0 0 0 0 0 0 0 0 0 0 0 0 0 0 0 0.51 0"/>
<feBlend mode="normal" in2="BackgroundImageFix" result="effect1_dropShadow_14_1081"/>
<feBlend mode="normal" in="SourceGraphic" in2="effect1_dropShadow_14_1081" result="shape"/>
</filter>
<filter id="filter2_d_14_1081" x="586" y="102" width="82" height="82" filterUnits="userSpaceOnUse" color-interpolation-filters="sRGB">
<feFlood flood-opacity="0" result="BackgroundImageFix"/>
<feColorMatrix in="SourceAlpha" type="matrix" values="0 0 0 0 0 0 0 0 0 0 0 0 0 0 0 0 0 0 127 0" result="hardAlpha"/>
<feOffset dx="5" dy="4"/>
<feGaussianBlur stdDeviation="2.5"/>
<feComposite in2="hardAlpha" operator="out"/>
<feColorMatrix type="matrix" values="0 0 0 0 0 0 0 0 0 0 0 0 0 0 0 0 0 0 0.51 0"/>
<feBlend mode="normal" in2="BackgroundImageFix" result="effect1_dropShadow_14_1081"/>
<feBlend mode="normal" in="SourceGraphic" in2="effect1_dropShadow_14_1081" result="shape"/>
</filter>
<filter id="filter3_d_14_1081" x="667" y="774" width="82" height="82" filterUnits="userSpaceOnUse" color-interpolation-filters="sRGB">
<feFlood flood-opacity="0" result="BackgroundImageFix"/>
<feColorMatrix in="SourceAlpha" type="matrix" values="0 0 0 0 0 0 0 0 0 0 0 0 0 0 0 0 0 0 127 0" result="hardAlpha"/>
<feOffset dx="5" dy="4"/>
<feGaussianBlur stdDeviation="2.5"/>
<feComposite in2="hardAlpha" operator="out"/>
<feColorMatrix type="matrix" values="0 0 0 0 0 0 0 0 0 0 0 0 0 0 0 0 0 0 0.51 0"/>
<feBlend mode="normal" in2="BackgroundImageFix" result="effect1_dropShadow_14_1081"/>
<feBlend mode="normal" in="SourceGraphic" in2="effect1_dropShadow_14_1081" result="shape"/>
</filter>
<filter id="filter4_d_14_1081" x="100" y="689" width="82" height="82" filterUnits="userSpaceOnUse" color-interpolation-filters="sRGB">
<feFlood flood-opacity="0" result="BackgroundImageFix"/>
<feColorMatrix in="SourceAlpha" type="matrix" values="0 0 0 0 0 0 0 0 0 0 0 0 0 0 0 0 0 0 127 0" result="hardAlpha"/>
<feOffset dx="5" dy="4"/>
<feGaussianBlur stdDeviation="2.5"/>
<feComposite in2="hardAlpha" operator="out"/>
<feColorMatrix type="matrix" values="0 0 0 0 0 0 0 0 0 0 0 0 0 0 0 0 0 0 0.51 0"/>
<feBlend mode="normal" in2="BackgroundImageFix" result="effect1_dropShadow_14_1081"/>
<feBlend mode="normal" in="SourceGraphic" in2="effect1_dropShadow_14_1081" result="shape"/>
</filter>
<clipPath id="clip0_14_1081">
<rect width="839" height="866" fill="white"/>
</clipPath>
</defs>
</svg>
